<svg width="165.912" height="88.92" viewBox="0 0 365.912 88.92" xmlns="http://www.w3.org/2000/svg"><g id="svgGroup" stroke-linecap="round" fill-rule="evenodd" font-size="9pt" stroke="#00000000" stroke-width="0mm" fill="#ffffff" style="stroke:#00000000;stroke-width:0mm;fill:#ffffff"><path d="M 237.151 85.32 L 240.271 67.44 Q 250.471 70.92 264.151 70.92 Q 268.231 70.92 269.911 70.68 L 269.911 66.48 Q 259.231 66.48 255.931 65.58 Q 252.631 64.68 251.611 63.78 Q 250.591 62.88 250.411 62.28 Q 250.231 61.68 250.231 60.6 L 253.831 50.28 Q 245.191 48.72 240.691 43.8 Q 236.191 38.88 236.191 28.38 Q 236.191 17.88 243.271 12.6 Q 250.351 7.32 266.311 7.32 Q 272.071 7.32 276.511 8.04 L 286.951 0 L 299.551 12.12 L 292.711 20.16 Q 294.271 24.36 294.271 30.96 Q 294.271 40.44 289.531 45.06 Q 284.791 49.68 272.671 50.64 L 272.191 53.52 Q 285.151 54.24 290.491 57.42 Q 295.831 60.6 295.831 69.12 Q 295.831 83.64 281.791 87.12 Q 274.831 88.92 263.011 88.92 Q 251.191 88.92 237.151 85.32 Z M 61.471 27.12 L 61.471 69.12 L 49.471 69.12 L 42.631 62.28 Q 39.151 66.36 33.151 68.64 Q 27.151 70.92 21.811 70.92 Q 16.471 70.92 13.231 70.08 Q 9.991 69.24 6.871 67.2 Q 0.031 62.88 0.031 51.12 Q 0.031 29.52 32.671 29.52 L 37.471 29.52 L 37.471 25.2 Q 33.631 24.96 31.111 24.96 Q 17.551 24.96 7.831 28.2 L 4.951 11.04 Q 16.951 7.32 32.671 7.32 Q 61.471 7.32 61.471 27.12 Z M 184.591 27.12 L 184.591 69.12 L 172.591 69.12 L 165.751 62.28 Q 162.271 66.36 156.271 68.64 Q 150.271 70.92 144.931 70.92 Q 139.591 70.92 136.351 70.08 Q 133.111 69.24 129.991 67.2 Q 123.151 62.88 123.151 51.12 Q 123.151 29.52 155.791 29.52 L 160.591 29.52 L 160.591 25.2 Q 156.751 24.96 154.231 24.96 Q 140.671 24.96 130.951 28.2 L 128.071 11.04 Q 140.071 7.32 155.791 7.32 Q 184.591 7.32 184.591 27.12 Z M 116.311 51.12 L 117.751 68.4 Q 111.511 70.92 101.671 70.92 Q 84.871 70.92 77.371 63.06 Q 69.871 55.2 69.871 39.12 Q 69.871 23.04 77.371 15.18 Q 84.871 7.32 101.671 7.32 Q 112.111 7.32 117.751 9.84 L 114.871 26.16 Q 108.511 24.84 104.791 24.84 Q 95.671 24.84 95.671 31.2 L 95.671 52.68 Q 99.151 53.4 104.611 53.4 Q 110.071 53.4 116.311 51.12 Z M 309.811 63.06 Q 302.311 55.2 302.311 39.12 Q 302.311 23.04 309.811 15.18 Q 317.311 7.32 334.111 7.32 Q 350.911 7.32 358.411 15.18 Q 365.911 23.04 365.911 39.12 Q 365.911 55.2 358.411 63.06 Q 350.911 70.92 334.111 70.92 Q 317.311 70.92 309.811 63.06 Z M 195.391 69.12 L 195.391 9.12 L 207.391 9.12 L 213.991 15.84 Q 221.071 9.36 231.751 7.32 L 233.191 30 Q 230.311 30.12 225.691 31.44 Q 221.071 32.76 219.391 34.8 L 219.391 69.12 L 195.391 69.12 Z M 328.111 29.88 L 328.111 53.4 L 331.831 53.4 Q 336.151 53.4 338.131 52.5 Q 340.111 51.6 340.111 48.36 L 340.111 24.84 L 336.391 24.84 Q 332.071 24.84 330.091 25.74 Q 328.111 26.64 328.111 29.88 Z M 258.751 28.32 L 258.751 36.12 L 262.471 36.12 Q 266.791 36.12 268.771 35.22 Q 270.751 34.32 270.751 31.08 L 270.751 23.28 L 267.031 23.28 Q 262.711 23.28 260.731 24.18 Q 258.751 25.08 258.751 28.32 Z M 24.271 48.48 L 24.271 53.4 L 29.191 53.4 Q 34.471 53.4 35.971 52.2 Q 37.471 51 37.471 49.08 L 37.471 43.44 L 32.551 43.44 Q 28.231 43.44 26.251 44.34 Q 24.271 45.24 24.271 48.48 Z M 147.391 48.48 L 147.391 53.4 L 152.311 53.4 Q 157.591 53.4 159.091 52.2 Q 160.591 51 160.591 49.08 L 160.591 43.44 L 155.671 43.44 Q 151.351 43.44 149.371 44.34 Q 147.391 45.24 147.391 48.48 Z" vector-effect="non-scaling-stroke"/></g></svg>